<svg width="20" height="20" viewBox="0 0 20 20" fill="none" xmlns="http://www.w3.org/2000/svg">
<path fill-rule="evenodd" clip-rule="evenodd" d="M3.33317 8.74996C3.33317 5.76329 5.76317 3.33329 8.74984 3.33329C11.7365 3.33329 14.1665 5.76329 14.1665 8.74996C14.1665 10.2416 13.5607 11.5933 12.5823 12.5741C12.5807 12.575 12.579 12.5758 12.5773 12.5775C12.5757 12.5783 12.5757 12.5808 12.574 12.5825C11.5932 13.5608 10.2407 14.1666 8.74984 14.1666C5.76317 14.1666 3.33317 11.7366 3.33317 8.74996ZM14.3065 13.1283C15.2598 11.9225 15.8332 10.4033 15.8332 8.74996C15.8332 4.84413 12.6557 1.66663 8.74984 1.66663C4.844 1.66663 1.6665 4.84413 1.6665 8.74996C1.6665 12.6558 4.844 15.8333 8.74984 15.8333C10.4023 15.8333 11.9223 15.26 13.1282 14.3066L16.9107 18.0891C17.0732 18.2516 17.2865 18.3333 17.4998 18.3333C17.7132 18.3333 17.9265 18.2516 18.089 18.0891C18.4148 17.7633 18.4148 17.2366 18.089 16.9108L14.3065 13.1283Z" fill="black"/>
<mask id="mask0_2_913" style="mask-type:luminance" maskUnits="userSpaceOnUse" x="1" y="1" width="18" height="18">
<path fill-rule="evenodd" clip-rule="evenodd" d="M3.33317 8.74996C3.33317 5.76329 5.76317 3.33329 8.74984 3.33329C11.7365 3.33329 14.1665 5.76329 14.1665 8.74996C14.1665 10.2416 13.5607 11.5933 12.5823 12.5741C12.5807 12.575 12.579 12.5758 12.5773 12.5775C12.5757 12.5783 12.5757 12.5808 12.574 12.5825C11.5932 13.5608 10.2407 14.1666 8.74984 14.1666C5.76317 14.1666 3.33317 11.7366 3.33317 8.74996ZM14.3065 13.1283C15.2598 11.9225 15.8332 10.4033 15.8332 8.74996C15.8332 4.84413 12.6557 1.66663 8.74984 1.66663C4.844 1.66663 1.6665 4.84413 1.6665 8.74996C1.6665 12.6558 4.844 15.8333 8.74984 15.8333C10.4023 15.8333 11.9223 15.26 13.1282 14.3066L16.9107 18.0891C17.0732 18.2516 17.2865 18.3333 17.4998 18.3333C17.7132 18.3333 17.9265 18.2516 18.089 18.0891C18.4148 17.7633 18.4148 17.2366 18.089 16.9108L14.3065 13.1283Z" fill="white"/>
</mask>
<g mask="url(#mask0_2_913)">
<path fill-rule="evenodd" clip-rule="evenodd" d="M0 0H20V20H0V0Z" fill="#989CAC"/>
</g>
</svg>
