<svg width="200" height="80" viewBox="0 0 200 80" fill="none" xmlns="http://www.w3.org/2000/svg">
<rect width="200" height="80" fill="white"/>
<path d="M85.834 39.5273C85.834 40.3504 85.9229 41.0178 86.0785 41.5072C86.2563 41.9967 86.4786 42.5306 86.7898 43.109C86.901 43.287 86.9454 43.465 86.9454 43.6207C86.9454 43.8432 86.812 44.0656 86.5231 44.2881L85.1227 45.2225C84.9227 45.356 84.7226 45.4227 84.5448 45.4227C84.3225 45.4227 84.1002 45.3115 83.878 45.1112C83.5668 44.7775 83.3 44.4216 83.0778 44.0656C82.8555 43.6874 82.6332 43.2647 82.3887 42.7531C80.6549 44.7998 78.4766 45.8231 75.8537 45.8231C73.9866 45.8231 72.4973 45.2892 71.4082 44.2214C70.319 43.1535 69.7633 41.7297 69.7633 39.95C69.7633 38.059 70.4301 36.5239 71.786 35.3671C73.1419 34.2102 74.9424 33.6318 77.2319 33.6318C77.9876 33.6318 78.7656 33.6986 79.588 33.8098C80.4104 33.921 81.2551 34.099 82.1442 34.2992V32.6752C82.1442 30.9844 81.7886 29.8053 81.0995 29.1157C80.3882 28.426 79.1879 28.0923 77.4764 28.0923C76.6984 28.0923 75.8982 28.1813 75.0758 28.3815C74.2533 28.5818 73.4531 28.8265 72.6751 29.1379C72.3195 29.2937 72.0528 29.3826 71.8972 29.4271C71.7416 29.4716 71.6304 29.4939 71.5415 29.4939C71.2303 29.4939 71.0747 29.2714 71.0747 28.8042V27.7141C71.0747 27.3582 71.1192 27.0912 71.2303 26.9355C71.3415 26.7798 71.5415 26.624 71.8527 26.4683C72.6307 26.0679 73.5643 25.7341 74.6534 25.4672C75.7426 25.178 76.8984 25.0445 78.121 25.0445C80.7661 25.0445 82.6999 25.6452 83.9447 26.8465C85.1672 28.0478 85.7896 29.8721 85.7896 32.3192V39.5273H85.834ZM76.8095 42.9088C77.543 42.9088 78.2988 42.7753 79.099 42.5084C79.8992 42.2414 80.6105 41.752 81.2106 41.0845C81.5663 40.6619 81.833 40.1947 81.9664 39.6607C82.0997 39.1268 82.1887 38.4817 82.1887 37.7253V36.7909C81.544 36.6352 80.855 36.5017 80.1437 36.4127C79.4324 36.3237 78.7433 36.2792 78.0543 36.2792C76.565 36.2792 75.4759 36.5684 74.7423 37.1691C74.0088 37.7698 73.6532 38.6151 73.6532 39.7275C73.6532 40.7731 73.9199 41.5517 74.4756 42.0857C75.0091 42.6418 75.787 42.9088 76.8095 42.9088ZM94.6585 45.3115C94.2584 45.3115 93.9916 45.2447 93.8138 45.089C93.636 44.9555 93.4804 44.6441 93.347 44.2214L88.1235 27.0245C87.9901 26.5795 87.9234 26.2903 87.9234 26.1346C87.9234 25.7786 88.1013 25.5784 88.4569 25.5784H90.6352C91.0576 25.5784 91.3465 25.6452 91.5021 25.8009C91.6799 25.9344 91.8133 26.2458 91.9467 26.6685L95.6809 41.396L99.1485 26.6685C99.2596 26.2236 99.393 25.9344 99.5708 25.8009C99.7486 25.6674 100.06 25.5784 100.46 25.5784H102.238C102.66 25.5784 102.949 25.6452 103.127 25.8009C103.305 25.9344 103.461 26.2458 103.55 26.6685L107.062 41.574L110.907 26.6685C111.04 26.2236 111.196 25.9344 111.352 25.8009C111.529 25.6674 111.818 25.5784 112.218 25.5784H114.286C114.641 25.5784 114.841 25.7564 114.841 26.1346C114.841 26.2458 114.819 26.3571 114.797 26.4905C114.775 26.624 114.73 26.802 114.641 27.0467L109.284 44.2436C109.151 44.6886 108.995 44.9778 108.818 45.1112C108.64 45.2447 108.351 45.3337 107.973 45.3337H106.061C105.639 45.3337 105.35 45.267 105.172 45.1112C104.994 44.9555 104.839 44.6663 104.75 44.2214L101.305 29.8721L97.8815 44.1991C97.7704 44.6441 97.637 44.9333 97.4592 45.089C97.2813 45.2447 96.9702 45.3115 96.5701 45.3115H94.6585ZM123.221 45.9121C122.065 45.9121 120.91 45.7787 119.798 45.5117C118.687 45.2447 117.82 44.9555 117.242 44.6218C116.886 44.4216 116.642 44.1991 116.553 43.9989C116.464 43.7987 116.419 43.5762 116.419 43.376V42.2414C116.419 41.7742 116.597 41.5517 116.931 41.5517C117.064 41.5517 117.197 41.574 117.331 41.6185C117.464 41.663 117.664 41.752 117.887 41.8409C118.642 42.1747 119.465 42.4416 120.332 42.6196C121.221 42.7976 122.088 42.8866 122.977 42.8866C124.377 42.8866 125.466 42.6418 126.222 42.1524C126.978 41.663 127.378 40.9511 127.378 40.0389C127.378 39.416 127.178 38.9043 126.778 38.4817C126.378 38.059 125.622 37.6808 124.533 37.3248L121.31 36.3237C119.687 35.812 118.487 35.0556 117.753 34.0545C117.02 33.0756 116.642 31.9855 116.642 30.8287C116.642 29.8943 116.842 29.0712 117.242 28.3593C117.642 27.6474 118.175 27.0245 118.842 26.535C119.509 26.0234 120.265 25.6452 121.154 25.3782C122.043 25.1112 122.977 25 123.955 25C124.444 25 124.955 25.0222 125.444 25.089C125.955 25.1557 126.422 25.2447 126.889 25.3337C127.333 25.4449 127.756 25.5562 128.156 25.6897C128.556 25.8231 128.867 25.9566 129.089 26.0901C129.401 26.2681 129.623 26.4461 129.756 26.6463C129.89 26.8243 129.956 27.069 129.956 27.3804V28.426C129.956 28.8932 129.778 29.1379 129.445 29.1379C129.267 29.1379 128.978 29.0489 128.6 28.871C127.333 28.2925 125.911 28.0033 124.333 28.0033C123.066 28.0033 122.065 28.2036 121.376 28.6263C120.687 29.0489 120.332 29.6941 120.332 30.6062C120.332 31.2291 120.554 31.7631 120.998 32.1858C121.443 32.6085 122.265 33.0312 123.443 33.4093L126.6 34.4105C128.2 34.9221 129.356 35.634 130.045 36.5462C130.734 37.4583 131.068 38.5039 131.068 39.6607C131.068 40.6174 130.868 41.485 130.49 42.2414C130.09 42.9978 129.556 43.6652 128.867 44.1991C128.178 44.7553 127.356 45.1557 126.4 45.445C125.4 45.7564 124.355 45.9121 123.221 45.9121Z" fill="#252F3E"/>
<path fill-rule="evenodd" clip-rule="evenodd" d="M127.422 56.7242C120.109 62.1302 109.484 65 100.349 65C87.5456 65 76.0094 60.2614 67.2961 52.386C66.607 51.7631 67.2294 50.9177 68.0518 51.4072C77.4764 56.8799 89.1016 60.1947 101.127 60.1947C109.24 60.1947 118.153 58.5039 126.355 55.0334C127.578 54.4772 128.623 55.8343 127.422 56.7242Z" fill="#FF9900"/>
<path fill-rule="evenodd" clip-rule="evenodd" d="M130.468 53.2537C129.534 52.0523 124.288 52.6752 121.91 52.9644C121.199 53.0534 121.087 52.4305 121.732 51.9633C125.911 49.0267 132.779 49.8721 133.579 50.851C134.38 51.8521 133.357 58.7264 129.445 62.019C128.845 62.5306 128.267 62.2637 128.534 61.5963C129.423 59.3938 131.401 54.4327 130.468 53.2537Z" fill="#FF9900"/>
</svg>
