<svg width="200" height="80" viewBox="0 0 200 80" fill="none" xmlns="http://www.w3.org/2000/svg">
<rect width="200" height="80" fill="white"/>
<path d="M88.5323 43.1424L94.0291 57.7363H91.2374L89.9474 54.0974H84.1955L82.9537 57.7219H80.186L85.6828 43.1279L88.5323 43.1424ZM87.0257 45.8523L84.8694 51.994H89.2447L87.0979 45.8523H87.0257Z" fill="#737373"/>
<path d="M95.2609 47.2772H103.617V48.2639L98.1296 55.7823H103.646V57.7365H94.8758V56.5669L100.276 49.2266H95.2609V47.2772Z" fill="#737373"/>
<path d="M114.125 47.2772V57.7365H111.646V56.3599H111.603C111.27 56.8369 110.819 57.2185 110.293 57.467C109.722 57.7428 109.094 57.8812 108.459 57.8713C107.95 57.907 107.439 57.833 106.961 57.6545C106.483 57.476 106.048 57.1971 105.687 56.8364C105.045 56.1497 104.724 55.0796 104.724 53.626V47.2772H107.242V53.342C107.19 54.0446 107.375 54.7442 107.766 55.3299C107.959 55.558 108.203 55.7371 108.478 55.8526C108.753 55.9681 109.052 56.0166 109.35 55.9941C109.667 56.0065 109.982 55.9466 110.272 55.819C110.563 55.6915 110.82 55.4995 111.025 55.2577C111.465 54.7153 111.691 54.0303 111.66 53.3324V47.2772H114.125Z" fill="#737373"/>
<path d="M121.542 47.1038C121.719 47.1008 121.896 47.1137 122.071 47.1423C122.205 47.1656 122.337 47.1994 122.466 47.2434V49.7367C122.292 49.6196 122.103 49.5287 121.903 49.4671C121.612 49.3757 121.308 49.3334 121.003 49.342C120.706 49.3424 120.414 49.4112 120.148 49.5431C119.883 49.675 119.651 49.8664 119.472 50.1025C119.001 50.7929 118.781 51.6233 118.846 52.4562V57.7508H116.387V47.2771H118.851V48.9232H118.89C119.089 48.3858 119.445 47.92 119.91 47.5851C120.389 47.2556 120.961 47.087 121.542 47.1038Z" fill="#737373"/>
<path d="M131.332 55.0989V57.1253C130.837 57.4194 130.297 57.6307 129.734 57.751C129.043 57.9143 128.336 57.9951 127.626 57.9917C126.942 58.0319 126.257 57.9266 125.616 57.6827C124.976 57.4388 124.394 57.0618 123.91 56.5766C123.024 55.6332 122.581 54.3207 122.581 52.6393C122.525 51.1719 123.033 49.7389 124.001 48.6346C124.448 48.1244 125.002 47.7189 125.624 47.4469C126.245 47.1749 126.919 47.043 127.597 47.0607C128.221 47.0259 128.845 47.1266 129.427 47.3559C130.009 47.5852 130.534 47.9377 130.966 48.3891C131.768 49.2748 132.17 50.4974 132.17 52.0569V53.2506H125.012C125.123 54.2999 125.46 55.0363 126.023 55.4503C126.668 55.891 127.438 56.1106 128.218 56.076C128.792 56.0804 129.363 55.9893 129.907 55.8064C130.415 55.6422 130.895 55.4038 131.332 55.0989ZM129.753 51.4456C129.799 50.7767 129.599 50.1141 129.19 49.5828C128.988 49.366 128.74 49.1963 128.465 49.0857C128.189 48.9751 127.893 48.9262 127.597 48.9427C127.005 48.9424 126.437 49.17 126.009 49.578C125.501 50.0811 125.172 50.7374 125.075 51.4456H129.753Z" fill="#737373"/>
<path d="M96.8496 23.0806V37.6745H94.313V26.2333H94.2744L89.7451 37.6745H88.0653L83.4253 26.2333H83.3964V37.6745H81.0523V23.0806H84.6864L88.8787 33.8816H88.9509L93.3744 23.0661L96.8496 23.0806ZM98.9674 24.1876C98.9631 23.9957 99.0004 23.805 99.0769 23.6288C99.1533 23.4527 99.2671 23.2952 99.4102 23.1672C99.6998 22.8976 100.081 22.7476 100.476 22.7476C100.872 22.7476 101.253 22.8976 101.543 23.1672C101.679 23.2973 101.788 23.4542 101.862 23.6281C101.936 23.802 101.973 23.9892 101.971 24.178C101.974 24.3679 101.936 24.5563 101.861 24.7306C101.785 24.9049 101.673 25.0611 101.533 25.1888C101.243 25.4573 100.86 25.6023 100.464 25.5931C100.269 25.5987 100.074 25.5655 99.8914 25.4952C99.7088 25.425 99.542 25.3192 99.4006 25.184C99.2627 25.0574 99.153 24.9034 99.0783 24.7318C99.0037 24.5601 98.9659 24.3748 98.9674 24.1876ZM101.682 27.2104V37.6745H99.2225V27.2104H101.682ZM109.152 35.8743C109.569 35.8632 109.98 35.7768 110.365 35.6192C110.801 35.4523 111.21 35.2255 111.583 34.9454V37.2509C111.164 37.4849 110.713 37.6567 110.245 37.7611C109.706 37.8812 109.156 37.9393 108.604 37.9344C107.912 37.9672 107.22 37.8554 106.574 37.6059C105.928 37.3565 105.34 36.975 104.85 36.4858C104.359 35.9966 103.976 35.4104 103.725 34.7648C103.474 34.1191 103.36 33.4282 103.391 32.7361C103.339 31.2139 103.871 29.7296 104.878 28.587C105.863 27.496 107.258 26.9505 109.061 26.9505C109.533 26.9534 110.004 27.0132 110.462 27.1286C110.851 27.2186 111.228 27.3577 111.583 27.5425V29.901C111.224 29.6368 110.833 29.42 110.418 29.256C110.031 29.1075 109.62 29.0308 109.205 29.0298C108.767 29.0141 108.331 29.0918 107.925 29.2578C107.519 29.4238 107.153 29.6742 106.852 29.9925C106.229 30.6936 105.907 31.6118 105.956 32.5483C105.93 32.9972 105.992 33.4468 106.14 33.8715C106.288 34.2961 106.518 34.6872 106.818 35.0224C107.129 35.3206 107.498 35.5511 107.902 35.6994C108.306 35.8477 108.737 35.9106 109.167 35.884L109.152 35.8743ZM118.596 27.0275C118.773 27.0256 118.951 27.0401 119.126 27.0708C119.262 27.0895 119.396 27.1234 119.525 27.1719V29.6652C119.35 29.5481 119.158 29.4573 118.957 29.3956C118.666 29.3042 118.362 29.2619 118.057 29.2705C117.761 29.2708 117.468 29.3397 117.203 29.4716C116.937 29.6035 116.706 29.7949 116.526 30.031C116.056 30.7231 115.837 31.5555 115.905 32.3895V37.6841H113.441V27.2104H115.905V28.8614H115.944C116.144 28.3239 116.499 27.8581 116.964 27.5233C117.443 27.1929 118.014 27.0227 118.596 27.0371V27.0275ZM119.655 32.5868C119.615 31.8386 119.725 31.09 119.977 30.3844C120.229 29.6788 120.618 29.0302 121.123 28.4763C122.086 27.4655 123.441 26.9601 125.19 26.9601C125.898 26.915 126.607 27.0204 127.27 27.2693C127.934 27.5182 128.538 27.9049 129.041 28.4041C130.001 29.4857 130.497 30.9017 130.422 32.3462C130.459 33.0854 130.349 33.8246 130.097 34.5205C129.845 35.2164 129.456 35.855 128.954 36.399C128.431 36.9124 127.806 37.3115 127.12 37.5708C126.434 37.8302 125.701 37.9442 124.969 37.9055C124.263 37.9377 123.557 37.8263 122.896 37.5781C122.234 37.3299 121.629 36.9501 121.118 36.4616C120.628 35.9483 120.245 35.3417 119.994 34.6777C119.743 34.0137 119.627 33.3059 119.655 32.5965V32.5868ZM122.22 32.505C122.158 33.4013 122.422 34.2899 122.962 35.0079C123.229 35.3023 123.559 35.533 123.927 35.6829C124.295 35.8329 124.692 35.8983 125.089 35.8743C125.474 35.899 125.859 35.8335 126.215 35.6831C126.57 35.5327 126.885 35.3015 127.135 35.0079C127.656 34.2565 127.904 33.3495 127.838 32.4376C127.904 31.5297 127.646 30.6275 127.111 29.8914C126.853 29.606 126.533 29.3834 126.176 29.2407C125.819 29.098 125.434 29.0391 125.051 29.0683C124.655 29.0469 124.259 29.1169 123.894 29.273C123.529 29.4291 123.205 29.667 122.947 29.9684C122.419 30.708 122.162 31.6075 122.22 32.5146V32.505ZM134.066 29.9492C134.057 30.1035 134.083 30.2578 134.141 30.401C134.2 30.5441 134.289 30.6726 134.403 30.777C134.856 31.1038 135.356 31.3602 135.885 31.5375C136.676 31.803 137.388 32.2593 137.96 32.866C138.36 33.3737 138.57 34.0056 138.552 34.6518C138.565 35.1086 138.469 35.5619 138.272 35.9744C138.075 36.3869 137.784 36.7469 137.421 37.0247C136.529 37.6645 135.446 37.9804 134.35 37.92C133.865 37.9149 133.381 37.8617 132.906 37.7611C132.447 37.6755 131.998 37.5399 131.568 37.3568V34.9502C132.014 35.2612 132.499 35.5106 133.012 35.6914C133.461 35.8653 133.936 35.9598 134.417 35.9706C134.841 35.997 135.265 35.9159 135.65 35.7347C135.782 35.6537 135.889 35.5374 135.959 35.3987C136.029 35.2601 136.058 35.1047 136.044 34.9502C136.045 34.785 136.009 34.6218 135.938 34.4726C135.867 34.3234 135.764 34.1922 135.635 34.0886C135.154 33.7477 134.627 33.4755 134.071 33.28C133.335 33.016 132.674 32.5765 132.145 31.9996C131.752 31.4806 131.551 30.8407 131.578 30.1898C131.57 29.7411 131.667 29.2968 131.863 28.893C132.059 28.4891 132.347 28.1369 132.704 27.865C133.536 27.2262 134.568 26.9023 135.616 26.9505C136.029 26.9558 136.442 26.9977 136.848 27.0756C137.238 27.1395 137.621 27.2444 137.989 27.3885V29.7326C137.633 29.4993 137.25 29.3102 136.848 29.1694C136.434 29.0192 135.998 28.9411 135.558 28.9384C135.173 28.916 134.79 29.0118 134.461 29.2127C134.337 29.2934 134.236 29.4043 134.167 29.5348C134.098 29.6653 134.063 29.8112 134.066 29.9588V29.9492ZM139.611 32.5868C139.571 31.8386 139.681 31.09 139.933 30.3844C140.185 29.6788 140.574 29.0302 141.079 28.4763C142.042 27.4655 143.409 26.9601 145.146 26.9601C145.854 26.915 146.563 27.0204 147.226 27.2693C147.89 27.5182 148.494 27.9049 148.997 28.4041C149.957 29.4857 150.453 30.9017 150.378 32.3462C150.415 33.0854 150.305 33.8246 150.053 34.5205C149.801 35.2164 149.412 35.855 148.91 36.399C148.386 36.9124 147.762 37.3115 147.076 37.5708C146.39 37.8302 145.657 37.9442 144.925 37.9055C144.219 37.9377 143.513 37.8263 142.852 37.5781C142.19 37.3299 141.585 36.9501 141.074 36.4616C140.584 35.9483 140.201 35.3417 139.95 34.6777C139.698 34.0137 139.583 33.3059 139.611 32.5965V32.5868ZM142.176 32.505C142.114 33.4013 142.378 34.2899 142.918 35.0079C143.184 35.3029 143.514 35.5339 143.883 35.6839C144.251 35.8339 144.648 35.899 145.045 35.8743C145.43 35.899 145.815 35.8335 146.17 35.6831C146.526 35.5327 146.841 35.3015 147.091 35.0079C147.612 34.2565 147.86 33.3495 147.794 32.4376C147.86 31.5297 147.602 30.6275 147.067 29.8914C146.811 29.6086 146.495 29.3876 146.141 29.2451C145.787 29.1025 145.406 29.042 145.026 29.0683C144.63 29.0465 144.234 29.1163 143.869 29.2725C143.504 29.4286 143.18 29.6667 142.922 29.9684C142.387 30.7055 142.123 31.6052 142.176 32.5146V32.505ZM158.542 29.2175H154.874V37.6745H152.381V29.2272H150.633V27.2104H152.381V25.7664C152.362 25.2654 152.448 24.7661 152.631 24.2997C152.815 23.8333 153.094 23.4101 153.449 23.0565C153.814 22.705 154.246 22.4306 154.719 22.2495C155.192 22.0684 155.696 21.9843 156.202 22.0024C156.468 22.0005 156.733 22.015 156.997 22.0457C157.204 22.0726 157.409 22.1193 157.608 22.1853V24.3128C157.471 24.242 157.327 24.184 157.179 24.1395C156.952 24.0685 156.715 24.0343 156.477 24.0384C156.255 24.0245 156.033 24.0606 155.828 24.1439C155.622 24.2272 155.437 24.3556 155.288 24.5198C154.977 24.9341 154.828 25.4475 154.869 25.9637V27.2248H158.537V24.8615L161.011 24.1058V27.2104H163.504V29.2272H161.011V34.1223C160.964 34.6036 161.088 35.086 161.362 35.4845C161.506 35.6267 161.679 35.7361 161.87 35.8051C162.06 35.874 162.263 35.901 162.464 35.884C162.641 35.8786 162.815 35.8428 162.979 35.7781C163.164 35.7202 163.34 35.6393 163.504 35.5374V37.5734C163.257 37.6909 162.995 37.772 162.724 37.8141C162.372 37.8901 162.012 37.9288 161.651 37.9296C161.225 37.9615 160.798 37.9039 160.396 37.7605C159.994 37.6171 159.626 37.391 159.317 37.0969C158.746 36.3947 158.467 35.5006 158.537 34.5988L158.542 29.2175Z" fill="#737373"/>
<path d="M52.4711 23.0808H36V39.5519H52.4711V23.0808Z" fill="#F25022"/>
<path d="M70.656 23.0808H54.1849V39.5519H70.656V23.0808Z" fill="#7FBA00"/>
<path d="M52.4712 41.2655H36.0001V57.7366H52.4712V41.2655Z" fill="#00A4EF"/>
<path d="M70.656 41.2655H54.1849V57.7366H70.656V41.2655Z" fill="#FFB900"/>
</svg>
