<svg xmlns="http://www.w3.org/2000/svg" width="280" height="255" fill="none"><mask id="a" width="280" height="255" x="0" y="0" maskUnits="userSpaceOnUse"><path fill="var(--gray-6,#f2f2f3)" d="M0 0h280v255H0z"/></mask><g stroke-linecap="round" stroke-miterlimit="10" stroke-width="1.5" mask="url(#a)" opacity=".4"><path stroke="url(#paint0_linear)" d="M282 552c152.431 0 276-123.569 276-276C558 123.569 434.431 0 282 0 129.569 0 6 123.569 6 276c0 152.431 123.569 276 276 276z" opacity=".2"/><path stroke="url(#paint1_linear)" d="M282 536c143.594 0 260-116.406 260-260S425.594 16 282 16 22 132.406 22 276s116.406 260 260 260z" opacity=".4"/><path stroke="url(#paint2_linear)" d="M282 520c134.758 0 244-109.242 244-244 0-134.757-109.242-244-244-244C147.243 32 38 141.243 38 276c0 134.758 109.243 244 244 244z" opacity=".6"/><path stroke="url(#paint3_linear)" d="M282 504c125.921 0 228-102.079 228-228S407.921 48 282 48 54 150.079 54 276s102.079 228 228 228z" opacity=".8"/><path stroke="url(#paint4_linear)" d="M282 488c117.084 0 212-94.916 212-212S399.084 64 282 64 70 158.916 70 276s94.916 212 212 212z"/><path stroke="var(--consul,#dc477d)" d="M282 472c108.248 0 196-87.752 196-196S390.248 80 282 80 86 167.752 86 276s87.752 196 196 196z"/><path stroke="var(--consul,#dc477d)" d="M282 456c99.411 0 180-80.589 180-180S381.411 96 282 96s-180 80.589-180 180 80.589 180 180 180z"/><path stroke="var(--consul,#dc477d)" d="M282 440c90.575 0 164-73.425 164-164s-73.425-164-164-164-164 73.425-164 164 73.425 164 164 164z"/><path stroke="var(--consul,#dc477d)" d="M282 424c81.738 0 148-66.262 148-148s-66.262-148-148-148-148 66.262-148 148 66.262 148 148 148z" opacity=".6"/><path stroke="url(#paint5_linear)" d="M282 408c72.902 0 132-59.098 132-132s-59.098-132-132-132-132 59.098-132 132 59.098 132 132 132z"/><path stroke="url(#paint6_linear)" d="M282 392c64.065 0 116-51.935 116-116s-51.935-116-116-116-116 51.935-116 116 51.935 116 116 116z"/><path stroke="url(#paint7_linear)" d="M282 376c55.228 0 100-44.772 100-100s-44.772-100-100-100-100 44.772-100 100 44.772 100 100 100z"/><path stroke="url(#paint8_linear)" d="M282 360c46.392 0 84-37.608 84-84s-37.608-84-84-84-84 37.608-84 84 37.608 84 84 84z"/><path stroke="var(--consul,#dc477d)" d="M282 344c37.555 0 68-30.445 68-68s-30.445-68-68-68-68 30.445-68 68 30.445 68 68 68z"/><path stroke="var(--consul,#dc477d)" d="M282 328c28.719 0 52-23.281 52-52s-23.281-52-52-52-52 23.281-52 52 23.281 52 52 52z" opacity=".8"/><path stroke="var(--consul,#dc477d)" d="M282 312c19.882 0 36-16.118 36-36s-16.118-36-36-36-36 16.118-36 36 16.118 36 36 36z" opacity=".6"/></g><defs><linearGradient id="paint0_linear" x1="5.3" x2="558.704" y1="276.003" y2="276.003" gradientUnits="userSpaceOnUse"><stop stop-color="var(--consul,#dc477d)" stop-opacity=".3"/><stop offset="1" stop-color="var(--consul,#dc477d)"/></linearGradient><linearGradient id="paint1_linear" x1="21.3" x2="542.704" y1="276.003" y2="276.003" gradientUnits="userSpaceOnUse"><stop stop-color="var(--consul,#dc477d)" stop-opacity=".3"/><stop offset="1" stop-color="var(--consul,#dc477d)"/></linearGradient><linearGradient id="paint2_linear" x1="37.3" x2="526.704" y1="276.003" y2="276.003" gradientUnits="userSpaceOnUse"><stop stop-color="var(--consul,#dc477d)" stop-opacity=".3"/><stop offset="1" stop-color="var(--consul,#dc477d)"/></linearGradient><linearGradient id="paint3_linear" x1="53.3" x2="510.704" y1="276.003" y2="276.003" gradientUnits="userSpaceOnUse"><stop stop-color="var(--consul,#dc477d)" stop-opacity=".3"/><stop offset="1" stop-color="var(--consul,#dc477d)"/></linearGradient><linearGradient id="paint4_linear" x1="69.3" x2="494.704" y1="276.003" y2="276.003" gradientUnits="userSpaceOnUse"><stop stop-color="var(--consul,#dc477d)" stop-opacity=".3"/><stop offset="1" stop-color="var(--consul,#dc477d)"/></linearGradient><linearGradient id="paint5_linear" x1="149.3" x2="414.704" y1="276.003" y2="276.003" gradientUnits="userSpaceOnUse"><stop stop-color="var(--consul,#dc477d)"/><stop offset="1" stop-color="var(--consul,#dc477d)" stop-opacity="0"/></linearGradient><linearGradient id="paint6_linear" x1="165.3" x2="398.704" y1="276.003" y2="276.003" gradientUnits="userSpaceOnUse"><stop stop-color="var(--consul,#dc477d)"/><stop offset="1" stop-color="var(--consul,#dc477d)" stop-opacity="0"/></linearGradient><linearGradient id="paint7_linear" x1="181.3" x2="382.704" y1="276.003" y2="276.003" gradientUnits="userSpaceOnUse"><stop stop-color="var(--consul,#dc477d)"/><stop offset="1" stop-color="var(--consul,#dc477d)" stop-opacity="0"/></linearGradient><linearGradient id="paint8_linear" x1="197.3" x2="366.704" y1="276.003" y2="276.003" gradientUnits="userSpaceOnUse"><stop stop-color="var(--consul,#dc477d)"/><stop offset="1" stop-color="var(--consul,#dc477d)" stop-opacity="0"/></linearGradient></defs></svg>