	<svg width="200" height="80" viewBox="0 0 200 80" fill="none" xmlns="http://www.w3.org/2000/svg">
<rect width="200" height="80" fill="white"/>
<path d="M91.4577 18.8188C89.2984 18.8393 87.1991 19.5321 85.4517 20.8009C83.7043 22.0697 82.3957 23.8514 81.7078 25.8984C81.02 27.9454 80.987 30.1558 81.6136 32.2224C82.2401 34.2889 83.495 36.1089 85.2038 37.4292L89.7865 32.8595C89.176 32.603 88.6752 32.1401 88.2572 31.6266C87.8392 31.1131 87.554 30.5046 87.4268 29.8548C87.2996 29.205 87.3342 28.5339 87.5276 27.9006C87.7211 27.2674 88.0674 26.6915 88.5361 26.2237C89.0047 25.756 89.5813 25.4107 90.2149 25.2185C90.8485 25.0262 91.5197 24.9929 92.1693 25.1214C92.8188 25.2498 93.4268 25.5362 93.9395 25.9552C94.4522 26.3742 94.8539 26.9129 95.1092 27.5238L99.7291 22.8939C98.7586 21.6221 97.5068 20.5924 96.0718 19.8854C94.6368 19.1783 93.0575 18.8133 91.4577 18.8188Z" fill="#FBBC05"/>
<path d="M108.937 13.5938C111.033 15.455 112.593 17.9273 113.327 20.6333C115.162 21.8855 116.547 23.6934 117.278 25.7913C118.009 27.8892 118.048 30.1664 117.389 32.288C116.729 34.4095 115.407 36.2636 113.615 37.5774C111.823 38.8912 109.658 39.5955 107.436 39.5868H99.447L99.4465 39.5863V33.2123L99.447 33.2118H107.436C108.398 33.0748 109.278 32.5953 109.914 31.8615C110.551 31.1277 110.901 30.1888 110.901 29.2174C110.901 28.2459 110.551 27.307 109.914 26.5732C109.278 25.8394 108.398 25.36 107.436 25.2229V24.4361C107.452 23.2304 107.197 22.0363 106.691 20.9419C106.185 19.8474 105.417 18.9501 104.488 18.1814L108.937 13.5938Z" fill="#4285F4"/>
<path d="M89.7793 32.8558C90.2918 33.0898 90.8939 33.2004 91.4573 33.1922H99.4462V39.5874H91.4573C89.202 39.5939 86.9945 38.7842 85.1917 37.4293L89.7793 32.8558Z" fill="#34A853"/>
<path d="M55.1442 65.8844C53.7514 65.9009 52.3849 65.505 51.2166 64.7467C50.0483 63.9883 49.1303 62.9014 48.5783 61.6226C48.0262 60.3438 47.8647 58.9303 48.1141 57.56C48.3634 56.1896 49.0125 54.9236 49.9796 53.9213C50.0191 53.8869 50.0562 53.8498 50.0906 53.8103C50.7469 53.1386 51.5316 52.6058 52.3981 52.2436C53.2645 51.8814 54.195 51.6973 55.1341 51.7022C56.0327 51.6867 56.9252 51.8519 57.7586 52.1881C58.5921 52.5243 59.3495 53.0245 59.9859 53.659L58.5838 55.0611C57.6632 54.1643 56.4294 53.6614 55.1442 53.659C54.4699 53.6537 53.8018 53.788 53.182 54.0536C52.5623 54.3192 52.0042 54.7104 51.5431 55.2023C50.5734 56.1547 50.0216 57.4533 50.0093 58.8125C49.997 60.1717 50.5252 61.4801 51.4776 62.4498C52.4299 63.4196 53.7286 63.9713 55.0877 63.9836C56.4469 63.9959 57.7553 63.4678 58.725 62.5154C59.3052 61.8489 59.6585 61.0153 59.7337 60.1349H55.1442V58.1578H61.6402C61.7109 58.5539 61.7413 58.956 61.731 59.3582C61.7667 60.1858 61.636 61.0122 61.3466 61.7884C61.0573 62.5646 60.6152 63.2748 60.0464 63.8771C59.417 64.5384 58.6548 65.059 57.8099 65.405C56.9651 65.7509 56.0566 65.9143 55.1442 65.8844ZM70.3452 64.6034C69.7008 65.2436 68.8811 65.6787 67.9897 65.8537C67.0983 66.0288 66.175 65.9359 65.3363 65.5869C64.4976 65.2379 63.781 64.6483 63.2769 63.8926C62.7729 63.1368 62.5038 62.2487 62.5038 61.3403C62.5038 60.4318 62.7729 59.5437 63.2769 58.788C63.781 58.0322 64.4976 57.4427 65.3363 57.0936C66.175 56.7446 67.0983 56.6518 67.9897 56.8268C68.8811 57.0018 69.7008 57.4369 70.3452 58.0771C71.1926 58.9521 71.6664 60.1223 71.6664 61.3403C71.6664 62.5583 71.1926 63.7285 70.3452 64.6034ZM65.3017 63.3123C65.5219 63.552 65.7872 63.7459 66.0825 63.8829C66.3778 64.0198 66.6973 64.097 67.0225 64.1102C67.3477 64.1233 67.6724 64.072 67.9777 63.9593C68.2831 63.8466 68.5632 63.6747 68.8019 63.4535L68.9331 63.3224C69.1912 63.0563 69.3917 62.7397 69.5218 62.3926C69.652 62.0455 69.7091 61.6752 69.6896 61.305C69.7038 60.9353 69.6443 60.5665 69.5144 60.2201C69.3845 59.8737 69.1869 59.5567 68.9331 59.2876C68.4711 58.8055 67.8369 58.5263 67.1694 58.5111C66.5019 58.496 65.8556 58.7462 65.3724 59.2069L65.2917 59.2775C65.0379 59.5466 64.8402 59.8636 64.7103 60.21C64.5804 60.5564 64.5209 60.9252 64.5351 61.2949C64.5124 61.6646 64.5671 62.0349 64.6956 62.3823C64.8241 62.7297 65.0237 63.0464 65.2816 63.3123H65.3017ZM80.291 64.6034C79.6459 65.2471 78.8245 65.6851 77.9306 65.8622C77.0366 66.0392 76.1103 65.9473 75.2686 65.5982C74.4268 65.249 73.7075 64.6581 73.2014 63.9003C72.6953 63.1424 72.4252 62.2516 72.4252 61.3403C72.4252 60.429 72.6953 59.5381 73.2014 58.7803C73.7075 58.0224 74.4268 57.4316 75.2686 57.0824C76.1103 56.7332 77.0366 56.6413 77.9306 56.8184C78.8245 56.9954 79.6459 57.4335 80.291 58.0771C81.1286 58.9583 81.5941 60.1286 81.5903 61.3443C81.5865 62.5601 81.1139 63.7275 80.2708 64.6034H80.291ZM75.2475 63.3123C75.4668 63.5517 75.7312 63.7454 76.0257 63.8822C76.3201 64.019 76.6387 64.0962 76.9632 64.1093C77.2876 64.1224 77.6114 64.0712 77.9159 63.9587C78.2204 63.8461 78.4997 63.6744 78.7376 63.4535L78.8485 63.3224C79.3412 62.7817 79.6142 62.0767 79.6142 61.3453C79.6142 60.6139 79.3412 59.9089 78.8485 59.3683C78.3892 58.8939 77.762 58.6187 77.1019 58.6017C76.4417 58.5847 75.8013 58.8274 75.3181 59.2775L75.2475 59.3481C74.987 59.613 74.7844 59.929 74.6524 60.2763C74.5205 60.6236 74.462 60.9945 74.4809 61.3655C74.4696 61.7357 74.5316 62.1044 74.6631 62.4506C74.7947 62.7968 74.9933 63.1136 75.2475 63.3829V63.3123ZM86.8677 69.9999C85.9691 70.0043 85.0938 69.7138 84.3762 69.1728C83.729 68.6809 83.2186 68.0316 82.8934 67.2865L84.6486 66.5603C84.8328 67.0069 85.1321 67.3967 85.516 67.69C85.9057 68.0164 86.3998 68.1919 86.908 68.1843C87.2388 68.2029 87.5697 68.1515 87.8791 68.0332C88.1885 67.915 88.4695 67.7328 88.7035 67.4984C89.1641 66.9316 89.3881 66.2089 89.3289 65.481V64.8253H89.2583C88.9658 65.1678 88.5973 65.4374 88.1823 65.6125C87.7673 65.7876 87.3172 65.8635 86.8677 65.834C86.2905 65.8456 85.717 65.7388 85.1827 65.5202C84.6484 65.3016 84.1645 64.9759 83.7609 64.5631C83.3288 64.1535 82.9837 63.6611 82.7463 63.1151C82.5088 62.5692 82.3839 61.981 82.379 61.3857C82.3683 60.7843 82.4819 60.1871 82.7128 59.6317C82.9436 59.0762 83.2867 58.5745 83.7206 58.1578C84.1036 57.732 84.5696 57.3889 85.0899 57.1495C85.6103 56.9102 86.174 56.7796 86.7466 56.7658C87.2298 56.77 87.7069 56.873 88.1487 57.0684C88.5316 57.2381 88.8751 57.4854 89.1574 57.7947H89.228V57.0684H91.1546V65.2187C91.2006 65.8653 91.1162 66.5145 90.9066 67.1279C90.6969 67.7413 90.3662 68.3063 89.9341 68.7895C89.0955 69.5796 87.9792 70.0073 86.8273 69.9798L86.8677 69.9999ZM87.0089 64.1091C87.3334 64.1145 87.6551 64.0487 87.9514 63.9162C88.2477 63.7838 88.5113 63.5879 88.7237 63.3425C89.2086 62.8087 89.4656 62.1064 89.4399 61.3857C89.4736 60.6473 89.2206 59.9245 88.7338 59.3683C88.5214 59.1229 88.2578 58.927 87.9615 58.7946C87.6652 58.6621 87.3435 58.5963 87.019 58.6017C86.6809 58.5945 86.3452 58.6591 86.034 58.7912C85.7227 58.9234 85.4431 59.1201 85.2134 59.3683C84.6938 59.8874 84.3968 60.5885 84.3855 61.3229C84.3742 62.0574 84.6495 62.7673 85.1529 63.3022C85.3887 63.5603 85.6776 63.7643 85.9997 63.9001C86.3219 64.0359 86.6696 64.1003 87.019 64.089L87.0089 64.1091ZM94.5741 52.2368V65.6222H92.5567V52.2166L94.5741 52.2368ZM100.031 65.9046C99.4329 65.9193 98.8378 65.8115 98.2827 65.5877C97.7276 65.3639 97.2242 65.029 96.8033 64.6034C95.9766 63.718 95.5167 62.5517 95.5167 61.3403C95.5167 60.1288 95.9766 58.9626 96.8033 58.0771C97.3804 57.467 98.1276 57.0446 98.9479 56.8647C99.7682 56.6848 100.624 56.7558 101.403 57.0684C101.832 57.2566 102.222 57.5235 102.553 57.8552C102.847 58.1372 103.107 58.452 103.33 58.7933C103.51 59.0767 103.663 59.3774 103.784 59.691L103.985 60.2055L97.8524 62.7272C98.0357 63.1569 98.3449 63.5209 98.7393 63.7712C99.1336 64.0215 99.5946 64.1464 100.061 64.1293C100.514 64.1298 100.959 64.0119 101.352 63.7871C101.745 63.5624 102.072 63.2387 102.301 62.8483L103.844 63.857C103.446 64.4131 102.946 64.8888 102.371 65.2591C101.664 65.6855 100.846 65.8926 100.021 65.8542L100.031 65.9046ZM97.5094 61.1839L101.544 59.4893C101.422 59.1897 101.202 58.9406 100.919 58.7832C100.608 58.618 100.262 58.5282 99.9101 58.521C99.5771 58.5364 99.2504 58.6178 98.9489 58.7603C98.6475 58.9029 98.3773 59.1038 98.1541 59.3515C97.9308 59.5991 97.7589 59.8886 97.6482 60.2031C97.5376 60.5177 97.4904 60.851 97.5094 61.1839Z" fill="#5F6368"/>
<path d="M114.426 65.8847C113.598 65.8994 112.775 65.7509 112.005 65.4475C111.234 65.1442 110.531 64.6921 109.935 64.117C109.339 63.5418 108.863 62.855 108.532 62.0956C108.202 61.3362 108.025 60.5193 108.01 59.6913V59.4291C107.99 58.5998 108.134 57.7746 108.433 57.0008C108.732 56.227 109.18 55.5197 109.752 54.9192C110.325 54.3188 111.01 53.837 111.768 53.5014C112.527 53.1658 113.344 52.9829 114.174 52.9633H114.426C115.287 52.9373 116.142 53.1051 116.93 53.4543C117.717 53.8035 118.416 54.3251 118.975 54.9807L117.966 56.06C117.559 55.5457 117.036 55.1344 116.44 54.8593C115.845 54.5842 115.192 54.4531 114.537 54.4764C113.901 54.4657 113.271 54.5845 112.683 54.8256C112.095 55.0666 111.562 55.4249 111.117 55.8784C110.222 56.8521 109.725 58.1265 109.725 59.4492C109.725 60.7719 110.222 62.0464 111.117 63.02C111.563 63.4726 112.096 63.8302 112.683 64.0712C113.271 64.3122 113.902 64.4316 114.537 64.4221C115.268 64.428 115.992 64.2708 116.655 63.962C117.318 63.6531 117.904 63.2004 118.37 62.6367L119.469 63.7362C118.895 64.4278 118.17 64.9797 117.351 65.3501C116.431 65.7557 115.429 65.9388 114.426 65.8847Z" fill="#5F6368"/>
<path d="M122.344 65.612H120.71V53.2252H122.304L122.344 65.612Z" fill="#5F6368"/>
<path d="M124.906 58.1575C125.736 57.3296 126.861 56.8647 128.033 56.8647C129.205 56.8647 130.33 57.3296 131.16 58.1575C131.948 59.0439 132.384 60.1889 132.384 61.3752C132.384 62.5615 131.948 63.7066 131.16 64.593C130.327 65.416 129.204 65.8775 128.033 65.8775C126.862 65.8775 125.739 65.416 124.906 64.593C124.118 63.7066 123.682 62.5615 123.682 61.3752C123.682 60.1889 124.118 59.0439 124.906 58.1575ZM126.086 63.5944C126.326 63.8512 126.614 64.0581 126.933 64.2028C127.253 64.3476 127.599 64.4275 127.949 64.4378C128.3 64.4481 128.65 64.3887 128.978 64.263C129.305 64.1372 129.605 63.9477 129.859 63.7053L129.96 63.6045C130.492 62.9858 130.785 62.1966 130.785 61.3803C130.785 60.564 130.492 59.7748 129.96 59.1561C129.721 58.9023 129.434 58.698 129.116 58.555C128.798 58.412 128.455 58.3331 128.107 58.3228C127.758 58.3125 127.411 58.371 127.085 58.495C126.759 58.6189 126.461 58.8059 126.207 59.0452L126.096 59.146C125.817 59.4433 125.601 59.7941 125.46 60.1772C125.32 60.5602 125.258 60.9678 125.279 61.3752C125.265 61.7798 125.331 62.1831 125.473 62.5622C125.615 62.9413 125.83 63.2886 126.107 63.5843L126.086 63.5944Z" fill="#5F6368"/>
<path d="M141.207 65.612H139.683V64.4419C139.396 64.8628 139.012 65.2087 138.564 65.4506C138.083 65.7297 137.536 65.8759 136.98 65.8743C136.528 65.897 136.077 65.8181 135.66 65.6436C135.243 65.469 134.87 65.2032 134.569 64.8656C133.991 64.1337 133.704 63.2141 133.762 62.2833V57.149H135.346V62.0816C135.346 63.6551 136.042 64.452 137.444 64.452C137.753 64.4599 138.059 64.3946 138.338 64.2613C138.617 64.1281 138.86 63.9307 139.048 63.6854C139.452 63.146 139.655 62.4825 139.623 61.8092V57.149H141.207V65.612Z" fill="#5F6368"/>
<path d="M146.603 65.8844C146.073 65.8821 145.55 65.7667 145.068 65.5457C144.586 65.3248 144.157 65.0035 143.809 64.6033C143.043 63.7064 142.621 62.5654 142.621 61.3856C142.621 60.2058 143.043 59.0647 143.809 58.1678C144.355 57.5373 145.097 57.1074 145.916 56.9466C146.735 56.7857 147.584 56.9032 148.328 57.2802C148.793 57.5139 149.192 57.8608 149.488 58.2889H149.559L149.488 57.149V53.2252H151.072V65.612H149.528V64.4419C149.232 64.87 148.833 65.2169 148.368 65.4506C147.827 65.7451 147.219 65.8945 146.603 65.8844ZM146.855 64.4924C147.216 64.4929 147.573 64.4178 147.903 64.2718C148.233 64.1259 148.529 63.9124 148.772 63.6451C149.307 63.0342 149.579 62.2365 149.528 61.4259C149.579 60.6093 149.307 59.8053 148.772 59.1866C148.31 58.677 147.665 58.3716 146.979 58.3375C146.292 58.3035 145.62 58.5436 145.11 59.0051L144.919 59.1664C144.422 59.8015 144.152 60.5845 144.152 61.3906C144.152 62.1968 144.422 62.9797 144.919 63.6148C145.164 63.8761 145.461 64.0837 145.791 64.2243C146.121 64.365 146.477 64.4356 146.835 64.4318L146.855 64.4924Z" fill="#5F6368"/>
<path d="M108.936 13.591L104.49 18.1828C102.913 16.9025 100.905 16.2748 98.879 16.4286C96.8529 16.5824 94.9627 17.5063 93.5966 19.0105C93.5939 19.0176 93.591 19.025 93.588 19.0326C92.8896 18.8884 92.1758 18.8163 91.4579 18.8187C89.3602 18.8386 87.3191 19.493 85.6023 20.6936C85.5992 20.6621 85.5977 20.6289 85.5977 20.5941C86.2353 18.2395 87.463 16.0864 89.1646 14.3385C90.8662 12.5905 92.9854 11.3054 95.322 10.6046C97.6586 9.90382 100.135 9.81055 102.518 10.3336C104.899 10.8563 107.108 11.9774 108.936 13.591Z" fill="#EA4335"/>
</svg>
