<svg xmlns="http://www.w3.org/2000/svg" width="280" height="255" fill="none"><mask id="a" width="280" height="255" x="0" y="0" maskUnits="userSpaceOnUse"><path fill="var(--gray-6,#f2f2f3)" d="M0 0h280v255H0z"/></mask><g mask="url(#a)"><path stroke="var(--nomad,#60dea9)" stroke-width=".7" d="M31 170.691L264.064 35.989m15.519 8.99L31 188.67M295.102 53.968L31 206.65M310.621 62.958L31 224.628m295.21-152.68L31 242.606m310.729-161.74L31 260.516m326.248-170.66L31 278.495m341.767-179.65L31 296.475m357.356-188.639L31 314.452m372.875-197.627L31 332.431m388.394-206.617L31 350.34m403.913-215.537L31 368.319m419.502-224.526L31 386.298m0-233.516L248.476 27m0 251.495L31 404.277m217.476-107.803L46.519 413.266m201.957-98.814L62.038 422.186m186.438-89.755l-170.85 98.744m170.85-80.835l-155.33 89.825m155.33-71.846l-139.811 80.835m139.811-62.856l-124.292 71.846m124.292-53.867l-108.773 62.856m108.773-44.947l-93.254 53.867m93.254-35.888l-77.665 44.877m77.665-26.898l-62.146 35.957m62.146-17.978l-46.627 26.968m46.627-8.99l-31.108 17.979m31.108-.069L232.957 521" opacity=".8"/></g></svg>