<svg xmlns="http://www.w3.org/2000/svg" width="280" height="255" fill="none"><mask id="a" width="280" height="255" x="0" y="0" maskUnits="userSpaceOnUse"><path fill="var(--gray-6,#f2f2f3)" d="M0 0h280v255H0z"/></mask><g mask="url(#a)" stroke-miterlimit="10" stroke-width="1.5"><path stroke="url(#paint0_linear)" d="M-1 408.404l407.148-235.556"/><path stroke="url(#paint1_linear)" d="M-1 398.417l407.148-235.506" opacity=".95"/><path stroke="url(#paint2_linear)" d="M-1 388.48l407.148-235.556" opacity=".9"/><path stroke="url(#paint3_linear)" d="M-1 378.493l407.148-235.556" opacity=".85"/><path stroke="url(#paint4_linear)" d="M-1 368.507L406.148 133" opacity=".8"/><path stroke="url(#paint5_linear)" d="M-1 358.57l407.148-235.556" opacity=".75"/><path stroke="url(#paint6_linear)" d="M-1 348.583l407.148-235.556" opacity=".7"/><path stroke="url(#paint7_linear)" d="M-1 338.596L406.148 103.09" opacity=".65"/><path stroke="url(#paint8_linear)" d="M-1 328.66L406.148 93.103" opacity=".6"/><path stroke="url(#paint9_linear)" d="M-1 318.673L406.148 83.117" opacity=".55"/><path stroke="url(#paint10_linear)" d="M-1 308.686L406.148 73.18" opacity=".5"/><path stroke="url(#paint11_linear)" d="M-1 298.749L406.148 63.193" opacity=".45"/><path stroke="url(#paint12_linear)" d="M-1 288.762L406.148 53.256" opacity=".4"/><path stroke="url(#paint13_linear)" d="M-1 278.776L406.148 43.269" opacity=".35"/><path stroke="url(#paint14_linear)" d="M-1 268.839L406.148 33.283" opacity=".3"/><path stroke="url(#paint15_linear)" d="M-1 258.852L406.148 23.346" opacity=".25"/><path stroke="url(#paint16_linear)" d="M-1 248.865L406.148 13.359" opacity=".2"/><path stroke="url(#paint17_linear)" d="M-1 238.928L406.148 3.372" opacity=".15"/><path stroke="url(#paint18_linear)" d="M-1 228.942L406.148-6.565" opacity=".1"/><path stroke="url(#paint19_linear)" d="M-1 218.955L406.148-16.551" opacity=".05"/></g><defs><linearGradient id="paint0_linear" x1="202.58" x2="202.58" y1="408.72" y2="172.545" gradientUnits="userSpaceOnUse"><stop stop-color="#5F43E9" stop-opacity=".3"/><stop offset=".344" stop-color="#5F43E9"/></linearGradient><linearGradient id="paint1_linear" x1="202.58" x2="202.58" y1="398.75" y2="162.575" gradientUnits="userSpaceOnUse"><stop stop-color="#5F43E9" stop-opacity=".25"/><stop offset=".344" stop-color="#5F43E9"/></linearGradient><linearGradient id="paint2_linear" x1="202.58" x2="202.58" y1="388.781" y2="152.605" gradientUnits="userSpaceOnUse"><stop stop-color="#5F43E9" stop-opacity=".2"/><stop offset=".344" stop-color="#5F43E9"/></linearGradient><linearGradient id="paint3_linear" x1="202.58" x2="202.58" y1="378.811" y2="142.636" gradientUnits="userSpaceOnUse"><stop stop-color="#5F43E9" stop-opacity=".15"/><stop offset=".344" stop-color="#5F43E9"/></linearGradient><linearGradient id="paint4_linear" x1="202.58" x2="202.58" y1="368.842" y2="132.666" gradientUnits="userSpaceOnUse"><stop stop-color="#5F43E9" stop-opacity=".1"/><stop offset=".344" stop-color="#5F43E9"/></linearGradient><linearGradient id="paint5_linear" x1="202.58" x2="202.58" y1="358.872" y2="122.697" gradientUnits="userSpaceOnUse"><stop stop-color="#5F43E9" stop-opacity=".05"/><stop offset=".344" stop-color="#5F43E9"/></linearGradient><linearGradient id="paint6_linear" x1="202.58" x2="202.58" y1="348.903" y2="112.727" gradientUnits="userSpaceOnUse"><stop stop-color="#5F43E9" stop-opacity="0"/><stop offset=".344" stop-color="#5F43E9"/></linearGradient><linearGradient id="paint7_linear" x1="202.58" x2="202.58" y1="338.933" y2="102.758" gradientUnits="userSpaceOnUse"><stop stop-color="#5F43E9" stop-opacity="0"/><stop offset=".344" stop-color="#5F43E9"/></linearGradient><linearGradient id="paint8_linear" x1="202.58" x2="202.58" y1="328.964" y2="92.788" gradientUnits="userSpaceOnUse"><stop stop-color="#5F43E9" stop-opacity="0"/><stop offset=".344" stop-color="#5F43E9"/></linearGradient><linearGradient id="paint9_linear" x1="202.58" x2="202.58" y1="318.994" y2="82.819" gradientUnits="userSpaceOnUse"><stop stop-color="#5F43E9" stop-opacity="0"/><stop offset=".344" stop-color="#5F43E9"/></linearGradient><linearGradient id="paint10_linear" x1="202.58" x2="202.58" y1="309.024" y2="72.849" gradientUnits="userSpaceOnUse"><stop stop-color="#5F43E9" stop-opacity="0"/><stop offset=".344" stop-color="#5F43E9"/></linearGradient><linearGradient id="paint11_linear" x1="202.58" x2="202.58" y1="299.055" y2="62.88" gradientUnits="userSpaceOnUse"><stop stop-color="#5F43E9" stop-opacity="0"/><stop offset=".344" stop-color="#5F43E9"/></linearGradient><linearGradient id="paint12_linear" x1="202.58" x2="202.58" y1="289.085" y2="52.91" gradientUnits="userSpaceOnUse"><stop stop-color="#5F43E9" stop-opacity="0"/><stop offset=".344" stop-color="#5F43E9"/></linearGradient><linearGradient id="paint13_linear" x1="202.58" x2="202.58" y1="279.116" y2="42.941" gradientUnits="userSpaceOnUse"><stop stop-color="#5F43E9" stop-opacity="0"/><stop offset=".344" stop-color="#5F43E9"/></linearGradient><linearGradient id="paint14_linear" x1="202.58" x2="202.58" y1="269.146" y2="32.971" gradientUnits="userSpaceOnUse"><stop stop-color="#5F43E9" stop-opacity="0"/><stop offset=".344" stop-color="#5F43E9"/></linearGradient><linearGradient id="paint15_linear" x1="202.58" x2="202.58" y1="259.177" y2="23.001" gradientUnits="userSpaceOnUse"><stop stop-color="#5F43E9" stop-opacity="0"/><stop offset=".344" stop-color="#5F43E9"/></linearGradient><linearGradient id="paint16_linear" x1="202.58" x2="202.58" y1="249.207" y2="13.032" gradientUnits="userSpaceOnUse"><stop stop-color="#5F43E9" stop-opacity="0"/><stop offset=".344" stop-color="#5F43E9"/></linearGradient><linearGradient id="paint17_linear" x1="202.58" x2="202.58" y1="239.238" y2="3.062" gradientUnits="userSpaceOnUse"><stop stop-color="#5F43E9" stop-opacity="0"/><stop offset=".344" stop-color="#5F43E9"/></linearGradient><linearGradient id="paint18_linear" x1="202.58" x2="202.58" y1="229.268" y2="-6.907" gradientUnits="userSpaceOnUse"><stop stop-color="#5F43E9" stop-opacity="0"/><stop offset=".344" stop-color="#5F43E9"/></linearGradient><linearGradient id="paint19_linear" x1="202.58" x2="202.58" y1="219.299" y2="-16.877" gradientUnits="userSpaceOnUse"><stop stop-color="#5F43E9" stop-opacity="0"/><stop offset=".344" stop-color="#5F43E9"/></linearGradient></defs></svg>