<svg xmlns="http://www.w3.org/2000/svg" width="280" height="255" fill="none"><path stroke="var(--gray-5,#dbdbdc)" stroke-linecap="round" stroke-width="1.5" d="M284.448 259.244l-15.059-25.977M254.31 259.252l-15.01-25.891M224.219 259.346L209.16 233.37M194.13 259.44l-15.06-25.977M163.99 259.448l-15.059-25.976M133.9 259.542l-15.059-25.976M103.761 259.551l-15.01-25.891M73.671 259.645l-15.059-25.977M43.581 259.738l-15.059-25.976M269.389 233.267l-15.059-25.976M239.3 233.361l-15.059-25.976M209.16 233.37l-15.059-25.977M179.07 233.463l-15.059-25.976M148.931 233.472l-15.01-25.891M118.841 233.566l-15.059-25.977M88.751 233.66l-15.059-25.977M58.612 233.668l-15.01-25.891M284.469 207.282l-15.059-25.976M254.33 207.291l-15.059-25.977M224.24 207.384l-15.059-25.976M194.101 207.393l-15.01-25.891M164.011 207.487l-15.059-25.976M133.921 207.581l-15.059-25.977M103.781 207.59l-15.01-25.891M73.692 207.683l-15.06-25.976M269.41 181.306l-15.059-25.976M239.271 181.314l-15.01-25.891M209.181 181.408l-15.059-25.977M179.091 181.502l-15.06-25.976M148.952 181.511l-15.01-25.891M118.862 181.604l-15.06-25.976M88.772 181.698l-15.06-25.976M284.355 155.285l-15.01-25.891M254.351 155.329l-15.06-25.976M224.261 155.423l-15.06-25.976M194.122 155.431l-15.01-25.891M164.031 155.526l-15.059-25.977M133.942 155.619l-15.059-25.976M103.802 155.628l-15.059-25.976M269.345 129.394l-15.059-25.977M239.291 129.353l-15.01-25.892M209.201 129.447l-15.059-25.977M179.112 129.54l-15.059-25.976M148.972 129.549l-15.059-25.976M118.883 129.643l-15.06-25.977M284.376 103.323l-15.01-25.89M254.286 103.417l-15.059-25.976M224.281 103.462l-15.059-25.977M194.142 103.47l-15.059-25.976M164.053 103.564l-15.06-25.976M133.913 103.573l-15.01-25.892M269.366 77.432l-15.059-25.976M239.227 77.44l-15.059-25.976M209.222 77.486l-15.059-25.977M179.083 77.494l-15.01-25.892M148.993 77.587l-15.059-25.976"/><path stroke="var(--gray-5,#dbdbdc)" stroke-linecap="round" stroke-miterlimit="10" stroke-width="1.5" d="M811.227 336.147l-15.08 25.985M615.584 50.67L434.956 362.868 615.584 50.67zm-451.51.932L-16.554 363.8 164.074 51.602zm-30.14.01L-46.693 363.807 133.934 51.611zm60.23-.103L13.536 363.706 194.164 51.509zm30.09-.094L43.626 363.612 224.254 51.415zm30.053.04L73.63 363.568 254.307 51.456zm30.176-.143L103.855 363.51 284.483 51.312zm30.054.041L133.859 363.465 314.537 51.353zm29.566.777L163.949 363.37 344.103 52.13zm30.613-.965L194.089 363.363 374.716 51.165zm30.14-.008L224.179 363.269 404.856 51.157zm30.09-.094L254.318 363.26 434.946 51.063zm30.09-.094L284.408 363.166 465.036 50.969zm30.139-.009L314.547 363.158 495.175 50.96zm28.886 1.966L344.588 362.979 524.061 52.926zm31.343-2.068L374.727 362.97 555.404 50.858zm30.09-.094L404.866 362.961 585.494 50.764zm60.229-.102L465.096 362.859 645.723 50.662zm15.06 25.976L495.186 362.765 660.783 76.638zm15.01 25.891L525.275 362.671l150.518-260.142zm15.059 25.977L555.365 362.577l135.487-234.071zm15.059 25.976L585.505 362.569l120.406-208.087zm15.059 25.977L615.509 362.524 720.97 180.459zm15.01 25.891l-90.381 156.081L735.98 206.35zm15.06 25.976l-75.302 130.096 75.302-130.096zm15.059 25.977l-60.221 104.11 60.221-104.11zm-30.131 104.016l45.19-78.04-45.19 78.04zm60.2-52.149l-30.11 52.056 30.11-52.056zM675.727 50.618L133.849 51.66m677.378 284.486l-842.89 1.592 842.89-1.592zm-15.059-25.976l-812.751 1.583 812.751-1.583zm-15.01-25.891l-782.661 1.489 782.661-1.489zm-15.059-25.977l-752.571 1.395 752.571-1.395zm-15.06-25.976l-722.431 1.386 722.431-1.386zM735.98 206.35l-692.342 1.293 692.342-1.293zm-15.01-25.891l-662.288 1.334 662.288-1.334zm-15.059-25.976l-632.198 1.239 632.198-1.239zm-15.059-25.977l-602.108 1.146 602.108-1.146zm-15.06-25.976l-571.969 1.137 571.969-1.137zm-15.059-25.977l-541.83 1.129 541.83-1.129z"/></svg>